<mxfile host="app.diagrams.net" modified="2021-03-05T05:47:25.007Z" agent="5.0 (Macintosh; Intel Mac OS X 11_1_0) AppleWebKit/537.36 (KHTML, like Gecko) Chrome/89.0.4389.72 Safari/537.36" etag="e9kZYxdtsZDdEGRyRhg5" version="14.4.4" type="github">
  <diagram id="R2lEEEUBdFMjLlhIrx00" name="Page-1">
    <mxGraphModel dx="1363" dy="677" grid="1" gridSize="10" guides="1" tooltips="1" connect="1" arrows="1" fold="1" page="1" pageScale="1" pageWidth="1654" pageHeight="2336" math="0" shadow="0" extFonts="Permanent Marker^https://fonts.googleapis.com/css?family=Permanent+Marker">
      <root>
        <mxCell id="0" />
        <mxCell id="1" parent="0" />
        <mxCell id="C-vyLk0tnHw3VtMMgP7b-13" value="LISTING_FEATURES" style="shape=table;startSize=30;container=1;collapsible=1;childLayout=tableLayout;fixedRows=1;rowLines=0;fontStyle=1;align=center;resizeLast=1;" parent="1" vertex="1">
          <mxGeometry x="980" y="160" width="250" height="130" as="geometry" />
        </mxCell>
        <mxCell id="C-vyLk0tnHw3VtMMgP7b-14" value="" style="shape=partialRectangle;collapsible=0;dropTarget=0;pointerEvents=0;fillColor=none;points=[[0,0.5],[1,0.5]];portConstraint=eastwest;top=0;left=0;right=0;bottom=1;" parent="C-vyLk0tnHw3VtMMgP7b-13" vertex="1">
          <mxGeometry y="30" width="250" height="30" as="geometry" />
        </mxCell>
        <mxCell id="C-vyLk0tnHw3VtMMgP7b-15" value="PK" style="shape=partialRectangle;overflow=hidden;connectable=0;fillColor=none;top=0;left=0;bottom=0;right=0;fontStyle=1;" parent="C-vyLk0tnHw3VtMMgP7b-14" vertex="1">
          <mxGeometry width="30" height="30" as="geometry" />
        </mxCell>
        <mxCell id="C-vyLk0tnHw3VtMMgP7b-16" value="id" style="shape=partialRectangle;overflow=hidden;connectable=0;fillColor=none;top=0;left=0;bottom=0;right=0;align=left;spacingLeft=6;fontStyle=5;" parent="C-vyLk0tnHw3VtMMgP7b-14" vertex="1">
          <mxGeometry x="30" width="220" height="30" as="geometry" />
        </mxCell>
        <mxCell id="C-vyLk0tnHw3VtMMgP7b-17" value="" style="shape=partialRectangle;collapsible=0;dropTarget=0;pointerEvents=0;fillColor=none;points=[[0,0.5],[1,0.5]];portConstraint=eastwest;top=0;left=0;right=0;bottom=0;" parent="C-vyLk0tnHw3VtMMgP7b-13" vertex="1">
          <mxGeometry y="60" width="250" height="30" as="geometry" />
        </mxCell>
        <mxCell id="C-vyLk0tnHw3VtMMgP7b-18" value="FK" style="shape=partialRectangle;overflow=hidden;connectable=0;fillColor=none;top=0;left=0;bottom=0;right=0;" parent="C-vyLk0tnHw3VtMMgP7b-17" vertex="1">
          <mxGeometry width="30" height="30" as="geometry" />
        </mxCell>
        <mxCell id="C-vyLk0tnHw3VtMMgP7b-19" value="listing_id" style="shape=partialRectangle;overflow=hidden;connectable=0;fillColor=none;top=0;left=0;bottom=0;right=0;align=left;spacingLeft=6;" parent="C-vyLk0tnHw3VtMMgP7b-17" vertex="1">
          <mxGeometry x="30" width="220" height="30" as="geometry" />
        </mxCell>
        <mxCell id="C-vyLk0tnHw3VtMMgP7b-20" value="" style="shape=partialRectangle;collapsible=0;dropTarget=0;pointerEvents=0;fillColor=none;points=[[0,0.5],[1,0.5]];portConstraint=eastwest;top=0;left=0;right=0;bottom=0;" parent="C-vyLk0tnHw3VtMMgP7b-13" vertex="1">
          <mxGeometry y="90" width="250" height="30" as="geometry" />
        </mxCell>
        <mxCell id="C-vyLk0tnHw3VtMMgP7b-21" value="FK" style="shape=partialRectangle;overflow=hidden;connectable=0;fillColor=none;top=0;left=0;bottom=0;right=0;" parent="C-vyLk0tnHw3VtMMgP7b-20" vertex="1">
          <mxGeometry width="30" height="30" as="geometry" />
        </mxCell>
        <mxCell id="C-vyLk0tnHw3VtMMgP7b-22" value="feature_id" style="shape=partialRectangle;overflow=hidden;connectable=0;fillColor=none;top=0;left=0;bottom=0;right=0;align=left;spacingLeft=6;" parent="C-vyLk0tnHw3VtMMgP7b-20" vertex="1">
          <mxGeometry x="30" width="220" height="30" as="geometry" />
        </mxCell>
        <mxCell id="C-vyLk0tnHw3VtMMgP7b-23" value="FEATURES" style="shape=table;startSize=30;container=1;collapsible=1;childLayout=tableLayout;fixedRows=1;rowLines=0;fontStyle=1;align=center;resizeLast=1;" parent="1" vertex="1">
          <mxGeometry x="1320" y="40" width="250" height="130" as="geometry" />
        </mxCell>
        <mxCell id="C-vyLk0tnHw3VtMMgP7b-24" value="" style="shape=partialRectangle;collapsible=0;dropTarget=0;pointerEvents=0;fillColor=none;points=[[0,0.5],[1,0.5]];portConstraint=eastwest;top=0;left=0;right=0;bottom=1;" parent="C-vyLk0tnHw3VtMMgP7b-23" vertex="1">
          <mxGeometry y="30" width="250" height="30" as="geometry" />
        </mxCell>
        <mxCell id="C-vyLk0tnHw3VtMMgP7b-25" value="PK" style="shape=partialRectangle;overflow=hidden;connectable=0;fillColor=none;top=0;left=0;bottom=0;right=0;fontStyle=1;" parent="C-vyLk0tnHw3VtMMgP7b-24" vertex="1">
          <mxGeometry width="30" height="30" as="geometry" />
        </mxCell>
        <mxCell id="C-vyLk0tnHw3VtMMgP7b-26" value="id" style="shape=partialRectangle;overflow=hidden;connectable=0;fillColor=none;top=0;left=0;bottom=0;right=0;align=left;spacingLeft=6;fontStyle=5;" parent="C-vyLk0tnHw3VtMMgP7b-24" vertex="1">
          <mxGeometry x="30" width="220" height="30" as="geometry" />
        </mxCell>
        <mxCell id="C-vyLk0tnHw3VtMMgP7b-27" value="" style="shape=partialRectangle;collapsible=0;dropTarget=0;pointerEvents=0;fillColor=none;points=[[0,0.5],[1,0.5]];portConstraint=eastwest;top=0;left=0;right=0;bottom=0;" parent="C-vyLk0tnHw3VtMMgP7b-23" vertex="1">
          <mxGeometry y="60" width="250" height="30" as="geometry" />
        </mxCell>
        <mxCell id="C-vyLk0tnHw3VtMMgP7b-28" value="" style="shape=partialRectangle;overflow=hidden;connectable=0;fillColor=none;top=0;left=0;bottom=0;right=0;" parent="C-vyLk0tnHw3VtMMgP7b-27" vertex="1">
          <mxGeometry width="30" height="30" as="geometry" />
        </mxCell>
        <mxCell id="C-vyLk0tnHw3VtMMgP7b-29" value="name: string" style="shape=partialRectangle;overflow=hidden;connectable=0;fillColor=none;top=0;left=0;bottom=0;right=0;align=left;spacingLeft=6;" parent="C-vyLk0tnHw3VtMMgP7b-27" vertex="1">
          <mxGeometry x="30" width="220" height="30" as="geometry" />
        </mxCell>
        <mxCell id="Q3FPXsVdG5ssyg1eh__7-69" style="shape=partialRectangle;collapsible=0;dropTarget=0;pointerEvents=0;fillColor=none;points=[[0,0.5],[1,0.5]];portConstraint=eastwest;top=0;left=0;right=0;bottom=0;" vertex="1" parent="C-vyLk0tnHw3VtMMgP7b-23">
          <mxGeometry y="90" width="250" height="30" as="geometry" />
        </mxCell>
        <mxCell id="Q3FPXsVdG5ssyg1eh__7-70" style="shape=partialRectangle;overflow=hidden;connectable=0;fillColor=none;top=0;left=0;bottom=0;right=0;" vertex="1" parent="Q3FPXsVdG5ssyg1eh__7-69">
          <mxGeometry width="30" height="30" as="geometry" />
        </mxCell>
        <mxCell id="Q3FPXsVdG5ssyg1eh__7-71" value="insurance: boolean" style="shape=partialRectangle;overflow=hidden;connectable=0;fillColor=none;top=0;left=0;bottom=0;right=0;align=left;spacingLeft=6;" vertex="1" parent="Q3FPXsVdG5ssyg1eh__7-69">
          <mxGeometry x="30" width="220" height="30" as="geometry" />
        </mxCell>
        <mxCell id="Q3FPXsVdG5ssyg1eh__7-32" value="LISTING" style="shape=table;startSize=30;container=1;collapsible=1;childLayout=tableLayout;fixedRows=1;rowLines=0;fontStyle=1;align=center;resizeLast=1;" vertex="1" parent="1">
          <mxGeometry x="700" y="270" width="220" height="290" as="geometry" />
        </mxCell>
        <mxCell id="Q3FPXsVdG5ssyg1eh__7-33" value="" style="shape=partialRectangle;collapsible=0;dropTarget=0;pointerEvents=0;fillColor=none;points=[[0,0.5],[1,0.5]];portConstraint=eastwest;top=0;left=0;right=0;bottom=1;" vertex="1" parent="Q3FPXsVdG5ssyg1eh__7-32">
          <mxGeometry y="30" width="220" height="30" as="geometry" />
        </mxCell>
        <mxCell id="Q3FPXsVdG5ssyg1eh__7-34" value="PK" style="shape=partialRectangle;overflow=hidden;connectable=0;fillColor=none;top=0;left=0;bottom=0;right=0;fontStyle=1;" vertex="1" parent="Q3FPXsVdG5ssyg1eh__7-33">
          <mxGeometry width="30" height="30" as="geometry" />
        </mxCell>
        <mxCell id="Q3FPXsVdG5ssyg1eh__7-35" value="id" style="shape=partialRectangle;overflow=hidden;connectable=0;fillColor=none;top=0;left=0;bottom=0;right=0;align=left;spacingLeft=6;fontStyle=5;" vertex="1" parent="Q3FPXsVdG5ssyg1eh__7-33">
          <mxGeometry x="30" width="190" height="30" as="geometry" />
        </mxCell>
        <mxCell id="Q3FPXsVdG5ssyg1eh__7-36" value="" style="shape=partialRectangle;collapsible=0;dropTarget=0;pointerEvents=0;fillColor=none;points=[[0,0.5],[1,0.5]];portConstraint=eastwest;top=0;left=0;right=0;bottom=0;" vertex="1" parent="Q3FPXsVdG5ssyg1eh__7-32">
          <mxGeometry y="60" width="220" height="30" as="geometry" />
        </mxCell>
        <mxCell id="Q3FPXsVdG5ssyg1eh__7-37" value="" style="shape=partialRectangle;overflow=hidden;connectable=0;fillColor=none;top=0;left=0;bottom=0;right=0;" vertex="1" parent="Q3FPXsVdG5ssyg1eh__7-36">
          <mxGeometry width="30" height="30" as="geometry" />
        </mxCell>
        <mxCell id="Q3FPXsVdG5ssyg1eh__7-38" value="name: string" style="shape=partialRectangle;overflow=hidden;connectable=0;fillColor=none;top=0;left=0;bottom=0;right=0;align=left;spacingLeft=6;" vertex="1" parent="Q3FPXsVdG5ssyg1eh__7-36">
          <mxGeometry x="30" width="190" height="30" as="geometry" />
        </mxCell>
        <mxCell id="Q3FPXsVdG5ssyg1eh__7-51" style="shape=partialRectangle;collapsible=0;dropTarget=0;pointerEvents=0;fillColor=none;points=[[0,0.5],[1,0.5]];portConstraint=eastwest;top=0;left=0;right=0;bottom=0;" vertex="1" parent="Q3FPXsVdG5ssyg1eh__7-32">
          <mxGeometry y="90" width="220" height="30" as="geometry" />
        </mxCell>
        <mxCell id="Q3FPXsVdG5ssyg1eh__7-52" style="shape=partialRectangle;overflow=hidden;connectable=0;fillColor=none;top=0;left=0;bottom=0;right=0;" vertex="1" parent="Q3FPXsVdG5ssyg1eh__7-51">
          <mxGeometry width="30" height="30" as="geometry" />
        </mxCell>
        <mxCell id="Q3FPXsVdG5ssyg1eh__7-53" value="description: string" style="shape=partialRectangle;overflow=hidden;connectable=0;fillColor=none;top=0;left=0;bottom=0;right=0;align=left;spacingLeft=6;" vertex="1" parent="Q3FPXsVdG5ssyg1eh__7-51">
          <mxGeometry x="30" width="190" height="30" as="geometry" />
        </mxCell>
        <mxCell id="Q3FPXsVdG5ssyg1eh__7-48" style="shape=partialRectangle;collapsible=0;dropTarget=0;pointerEvents=0;fillColor=none;points=[[0,0.5],[1,0.5]];portConstraint=eastwest;top=0;left=0;right=0;bottom=0;" vertex="1" parent="Q3FPXsVdG5ssyg1eh__7-32">
          <mxGeometry y="120" width="220" height="30" as="geometry" />
        </mxCell>
        <mxCell id="Q3FPXsVdG5ssyg1eh__7-49" style="shape=partialRectangle;overflow=hidden;connectable=0;fillColor=none;top=0;left=0;bottom=0;right=0;" vertex="1" parent="Q3FPXsVdG5ssyg1eh__7-48">
          <mxGeometry width="30" height="30" as="geometry" />
        </mxCell>
        <mxCell id="Q3FPXsVdG5ssyg1eh__7-50" value="price: integer" style="shape=partialRectangle;overflow=hidden;connectable=0;fillColor=none;top=0;left=0;bottom=0;right=0;align=left;spacingLeft=6;" vertex="1" parent="Q3FPXsVdG5ssyg1eh__7-48">
          <mxGeometry x="30" width="190" height="30" as="geometry" />
        </mxCell>
        <mxCell id="Q3FPXsVdG5ssyg1eh__7-45" style="shape=partialRectangle;collapsible=0;dropTarget=0;pointerEvents=0;fillColor=none;points=[[0,0.5],[1,0.5]];portConstraint=eastwest;top=0;left=0;right=0;bottom=0;" vertex="1" parent="Q3FPXsVdG5ssyg1eh__7-32">
          <mxGeometry y="150" width="220" height="20" as="geometry" />
        </mxCell>
        <mxCell id="Q3FPXsVdG5ssyg1eh__7-46" style="shape=partialRectangle;overflow=hidden;connectable=0;fillColor=none;top=0;left=0;bottom=0;right=0;" vertex="1" parent="Q3FPXsVdG5ssyg1eh__7-45">
          <mxGeometry width="30" height="20" as="geometry" />
        </mxCell>
        <mxCell id="Q3FPXsVdG5ssyg1eh__7-47" value="images: int " style="shape=partialRectangle;overflow=hidden;connectable=0;fillColor=none;top=0;left=0;bottom=0;right=0;align=left;spacingLeft=6;" vertex="1" parent="Q3FPXsVdG5ssyg1eh__7-45">
          <mxGeometry x="30" width="190" height="20" as="geometry" />
        </mxCell>
        <mxCell id="Q3FPXsVdG5ssyg1eh__7-60" style="shape=partialRectangle;collapsible=0;dropTarget=0;pointerEvents=0;fillColor=none;points=[[0,0.5],[1,0.5]];portConstraint=eastwest;top=0;left=0;right=0;bottom=0;" vertex="1" parent="Q3FPXsVdG5ssyg1eh__7-32">
          <mxGeometry y="170" width="220" height="20" as="geometry" />
        </mxCell>
        <mxCell id="Q3FPXsVdG5ssyg1eh__7-61" style="shape=partialRectangle;overflow=hidden;connectable=0;fillColor=none;top=0;left=0;bottom=0;right=0;" vertex="1" parent="Q3FPXsVdG5ssyg1eh__7-60">
          <mxGeometry width="30" height="20" as="geometry" />
        </mxCell>
        <mxCell id="Q3FPXsVdG5ssyg1eh__7-62" value="" style="shape=partialRectangle;overflow=hidden;connectable=0;fillColor=none;top=0;left=0;bottom=0;right=0;align=left;spacingLeft=6;" vertex="1" parent="Q3FPXsVdG5ssyg1eh__7-60">
          <mxGeometry x="30" width="190" height="20" as="geometry" />
        </mxCell>
        <mxCell id="Q3FPXsVdG5ssyg1eh__7-57" style="shape=partialRectangle;collapsible=0;dropTarget=0;pointerEvents=0;fillColor=none;points=[[0,0.5],[1,0.5]];portConstraint=eastwest;top=0;left=0;right=0;bottom=0;" vertex="1" parent="Q3FPXsVdG5ssyg1eh__7-32">
          <mxGeometry y="190" width="220" height="30" as="geometry" />
        </mxCell>
        <mxCell id="Q3FPXsVdG5ssyg1eh__7-58" style="shape=partialRectangle;overflow=hidden;connectable=0;fillColor=none;top=0;left=0;bottom=0;right=0;" vertex="1" parent="Q3FPXsVdG5ssyg1eh__7-57">
          <mxGeometry width="30" height="30" as="geometry" />
        </mxCell>
        <mxCell id="Q3FPXsVdG5ssyg1eh__7-59" value="condition: int" style="shape=partialRectangle;overflow=hidden;connectable=0;fillColor=none;top=0;left=0;bottom=0;right=0;align=left;spacingLeft=6;" vertex="1" parent="Q3FPXsVdG5ssyg1eh__7-57">
          <mxGeometry x="30" width="190" height="30" as="geometry" />
        </mxCell>
        <mxCell id="Q3FPXsVdG5ssyg1eh__7-54" style="shape=partialRectangle;collapsible=0;dropTarget=0;pointerEvents=0;fillColor=none;points=[[0,0.5],[1,0.5]];portConstraint=eastwest;top=0;left=0;right=0;bottom=0;" vertex="1" parent="Q3FPXsVdG5ssyg1eh__7-32">
          <mxGeometry y="220" width="220" height="20" as="geometry" />
        </mxCell>
        <mxCell id="Q3FPXsVdG5ssyg1eh__7-55" style="shape=partialRectangle;overflow=hidden;connectable=0;fillColor=none;top=0;left=0;bottom=0;right=0;" vertex="1" parent="Q3FPXsVdG5ssyg1eh__7-54">
          <mxGeometry width="30" height="20" as="geometry" />
        </mxCell>
        <mxCell id="Q3FPXsVdG5ssyg1eh__7-56" value="available: boolean" style="shape=partialRectangle;overflow=hidden;connectable=0;fillColor=none;top=0;left=0;bottom=0;right=0;align=left;spacingLeft=6;" vertex="1" parent="Q3FPXsVdG5ssyg1eh__7-54">
          <mxGeometry x="30" width="190" height="20" as="geometry" />
        </mxCell>
        <mxCell id="Q3FPXsVdG5ssyg1eh__7-132" style="shape=partialRectangle;collapsible=0;dropTarget=0;pointerEvents=0;fillColor=none;points=[[0,0.5],[1,0.5]];portConstraint=eastwest;top=0;left=0;right=0;bottom=0;" vertex="1" parent="Q3FPXsVdG5ssyg1eh__7-32">
          <mxGeometry y="240" width="220" height="20" as="geometry" />
        </mxCell>
        <mxCell id="Q3FPXsVdG5ssyg1eh__7-133" value="FK" style="shape=partialRectangle;overflow=hidden;connectable=0;fillColor=none;top=0;left=0;bottom=0;right=0;" vertex="1" parent="Q3FPXsVdG5ssyg1eh__7-132">
          <mxGeometry width="30" height="20" as="geometry" />
        </mxCell>
        <mxCell id="Q3FPXsVdG5ssyg1eh__7-134" value="category_id: int" style="shape=partialRectangle;overflow=hidden;connectable=0;fillColor=none;top=0;left=0;bottom=0;right=0;align=left;spacingLeft=6;" vertex="1" parent="Q3FPXsVdG5ssyg1eh__7-132">
          <mxGeometry x="30" width="190" height="20" as="geometry" />
        </mxCell>
        <mxCell id="Q3FPXsVdG5ssyg1eh__7-139" style="shape=partialRectangle;collapsible=0;dropTarget=0;pointerEvents=0;fillColor=none;points=[[0,0.5],[1,0.5]];portConstraint=eastwest;top=0;left=0;right=0;bottom=0;" vertex="1" parent="Q3FPXsVdG5ssyg1eh__7-32">
          <mxGeometry y="260" width="220" height="20" as="geometry" />
        </mxCell>
        <mxCell id="Q3FPXsVdG5ssyg1eh__7-140" value="FK" style="shape=partialRectangle;overflow=hidden;connectable=0;fillColor=none;top=0;left=0;bottom=0;right=0;" vertex="1" parent="Q3FPXsVdG5ssyg1eh__7-139">
          <mxGeometry width="30" height="20" as="geometry" />
        </mxCell>
        <mxCell id="Q3FPXsVdG5ssyg1eh__7-141" value="user_id:  int" style="shape=partialRectangle;overflow=hidden;connectable=0;fillColor=none;top=0;left=0;bottom=0;right=0;align=left;spacingLeft=6;" vertex="1" parent="Q3FPXsVdG5ssyg1eh__7-139">
          <mxGeometry x="30" width="190" height="20" as="geometry" />
        </mxCell>
        <mxCell id="Q3FPXsVdG5ssyg1eh__7-76" value="" style="edgeStyle=entityRelationEdgeStyle;fontSize=12;html=1;endArrow=ERoneToMany;endFill=0;exitX=1;exitY=0.5;exitDx=0;exitDy=0;entryX=0;entryY=0.5;entryDx=0;entryDy=0;" edge="1" parent="1" source="Q3FPXsVdG5ssyg1eh__7-33" target="C-vyLk0tnHw3VtMMgP7b-17">
          <mxGeometry width="100" height="100" relative="1" as="geometry">
            <mxPoint x="390" y="380" as="sourcePoint" />
            <mxPoint x="490" y="280" as="targetPoint" />
          </mxGeometry>
        </mxCell>
        <mxCell id="Q3FPXsVdG5ssyg1eh__7-77" value="" style="edgeStyle=entityRelationEdgeStyle;fontSize=12;html=1;endArrow=none;endFill=0;exitX=1;exitY=0.5;exitDx=0;exitDy=0;entryX=0;entryY=0.5;entryDx=0;entryDy=0;startArrow=ERoneToMany;startFill=0;" edge="1" parent="1" source="C-vyLk0tnHw3VtMMgP7b-20" target="C-vyLk0tnHw3VtMMgP7b-24">
          <mxGeometry width="100" height="100" relative="1" as="geometry">
            <mxPoint x="690" y="200" as="sourcePoint" />
            <mxPoint x="790" y="100" as="targetPoint" />
          </mxGeometry>
        </mxCell>
        <mxCell id="Q3FPXsVdG5ssyg1eh__7-78" value="User" style="shape=table;startSize=30;container=1;collapsible=1;childLayout=tableLayout;fixedRows=1;rowLines=0;fontStyle=1;align=center;resizeLast=1;" vertex="1" parent="1">
          <mxGeometry x="370" y="490" width="200" height="160" as="geometry" />
        </mxCell>
        <mxCell id="Q3FPXsVdG5ssyg1eh__7-79" value="" style="shape=partialRectangle;collapsible=0;dropTarget=0;pointerEvents=0;fillColor=none;top=0;left=0;bottom=1;right=0;points=[[0,0.5],[1,0.5]];portConstraint=eastwest;" vertex="1" parent="Q3FPXsVdG5ssyg1eh__7-78">
          <mxGeometry y="30" width="200" height="30" as="geometry" />
        </mxCell>
        <mxCell id="Q3FPXsVdG5ssyg1eh__7-80" value="PK" style="shape=partialRectangle;connectable=0;fillColor=none;top=0;left=0;bottom=0;right=0;fontStyle=1;overflow=hidden;" vertex="1" parent="Q3FPXsVdG5ssyg1eh__7-79">
          <mxGeometry width="30" height="30" as="geometry" />
        </mxCell>
        <mxCell id="Q3FPXsVdG5ssyg1eh__7-81" value="id" style="shape=partialRectangle;connectable=0;fillColor=none;top=0;left=0;bottom=0;right=0;align=left;spacingLeft=6;fontStyle=5;overflow=hidden;" vertex="1" parent="Q3FPXsVdG5ssyg1eh__7-79">
          <mxGeometry x="30" width="170" height="30" as="geometry" />
        </mxCell>
        <mxCell id="Q3FPXsVdG5ssyg1eh__7-82" value="" style="shape=partialRectangle;collapsible=0;dropTarget=0;pointerEvents=0;fillColor=none;top=0;left=0;bottom=0;right=0;points=[[0,0.5],[1,0.5]];portConstraint=eastwest;" vertex="1" parent="Q3FPXsVdG5ssyg1eh__7-78">
          <mxGeometry y="60" width="200" height="30" as="geometry" />
        </mxCell>
        <mxCell id="Q3FPXsVdG5ssyg1eh__7-83" value="" style="shape=partialRectangle;connectable=0;fillColor=none;top=0;left=0;bottom=0;right=0;editable=1;overflow=hidden;" vertex="1" parent="Q3FPXsVdG5ssyg1eh__7-82">
          <mxGeometry width="30" height="30" as="geometry" />
        </mxCell>
        <mxCell id="Q3FPXsVdG5ssyg1eh__7-84" value="username: string" style="shape=partialRectangle;connectable=0;fillColor=none;top=0;left=0;bottom=0;right=0;align=left;spacingLeft=6;overflow=hidden;" vertex="1" parent="Q3FPXsVdG5ssyg1eh__7-82">
          <mxGeometry x="30" width="170" height="30" as="geometry" />
        </mxCell>
        <mxCell id="Q3FPXsVdG5ssyg1eh__7-85" value="" style="shape=partialRectangle;collapsible=0;dropTarget=0;pointerEvents=0;fillColor=none;top=0;left=0;bottom=0;right=0;points=[[0,0.5],[1,0.5]];portConstraint=eastwest;" vertex="1" parent="Q3FPXsVdG5ssyg1eh__7-78">
          <mxGeometry y="90" width="200" height="30" as="geometry" />
        </mxCell>
        <mxCell id="Q3FPXsVdG5ssyg1eh__7-86" value="" style="shape=partialRectangle;connectable=0;fillColor=none;top=0;left=0;bottom=0;right=0;editable=1;overflow=hidden;" vertex="1" parent="Q3FPXsVdG5ssyg1eh__7-85">
          <mxGeometry width="30" height="30" as="geometry" />
        </mxCell>
        <mxCell id="Q3FPXsVdG5ssyg1eh__7-87" value="email: varchar" style="shape=partialRectangle;connectable=0;fillColor=none;top=0;left=0;bottom=0;right=0;align=left;spacingLeft=6;overflow=hidden;" vertex="1" parent="Q3FPXsVdG5ssyg1eh__7-85">
          <mxGeometry x="30" width="170" height="30" as="geometry" />
        </mxCell>
        <mxCell id="Q3FPXsVdG5ssyg1eh__7-88" value="" style="shape=partialRectangle;collapsible=0;dropTarget=0;pointerEvents=0;fillColor=none;top=0;left=0;bottom=0;right=0;points=[[0,0.5],[1,0.5]];portConstraint=eastwest;" vertex="1" parent="Q3FPXsVdG5ssyg1eh__7-78">
          <mxGeometry y="120" width="200" height="30" as="geometry" />
        </mxCell>
        <mxCell id="Q3FPXsVdG5ssyg1eh__7-89" value="" style="shape=partialRectangle;connectable=0;fillColor=none;top=0;left=0;bottom=0;right=0;editable=1;overflow=hidden;" vertex="1" parent="Q3FPXsVdG5ssyg1eh__7-88">
          <mxGeometry width="30" height="30" as="geometry" />
        </mxCell>
        <mxCell id="Q3FPXsVdG5ssyg1eh__7-90" value="password: encrypted_string" style="shape=partialRectangle;connectable=0;fillColor=none;top=0;left=0;bottom=0;right=0;align=left;spacingLeft=6;overflow=hidden;" vertex="1" parent="Q3FPXsVdG5ssyg1eh__7-88">
          <mxGeometry x="30" width="170" height="30" as="geometry" />
        </mxCell>
        <mxCell id="Q3FPXsVdG5ssyg1eh__7-95" value="Profile" style="shape=table;startSize=30;container=1;collapsible=1;childLayout=tableLayout;fixedRows=1;rowLines=0;fontStyle=1;align=center;resizeLast=1;" vertex="1" parent="1">
          <mxGeometry x="80" y="320" width="180" height="400" as="geometry" />
        </mxCell>
        <mxCell id="Q3FPXsVdG5ssyg1eh__7-96" value="" style="shape=partialRectangle;collapsible=0;dropTarget=0;pointerEvents=0;fillColor=none;top=0;left=0;bottom=1;right=0;points=[[0,0.5],[1,0.5]];portConstraint=eastwest;" vertex="1" parent="Q3FPXsVdG5ssyg1eh__7-95">
          <mxGeometry y="30" width="180" height="30" as="geometry" />
        </mxCell>
        <mxCell id="Q3FPXsVdG5ssyg1eh__7-97" value="PK" style="shape=partialRectangle;connectable=0;fillColor=none;top=0;left=0;bottom=0;right=0;fontStyle=1;overflow=hidden;" vertex="1" parent="Q3FPXsVdG5ssyg1eh__7-96">
          <mxGeometry width="30" height="30" as="geometry" />
        </mxCell>
        <mxCell id="Q3FPXsVdG5ssyg1eh__7-98" value="id" style="shape=partialRectangle;connectable=0;fillColor=none;top=0;left=0;bottom=0;right=0;align=left;spacingLeft=6;fontStyle=5;overflow=hidden;" vertex="1" parent="Q3FPXsVdG5ssyg1eh__7-96">
          <mxGeometry x="30" width="150" height="30" as="geometry" />
        </mxCell>
        <mxCell id="Q3FPXsVdG5ssyg1eh__7-99" value="" style="shape=partialRectangle;collapsible=0;dropTarget=0;pointerEvents=0;fillColor=none;top=0;left=0;bottom=0;right=0;points=[[0,0.5],[1,0.5]];portConstraint=eastwest;" vertex="1" parent="Q3FPXsVdG5ssyg1eh__7-95">
          <mxGeometry y="60" width="180" height="30" as="geometry" />
        </mxCell>
        <mxCell id="Q3FPXsVdG5ssyg1eh__7-100" value="" style="shape=partialRectangle;connectable=0;fillColor=none;top=0;left=0;bottom=0;right=0;editable=1;overflow=hidden;" vertex="1" parent="Q3FPXsVdG5ssyg1eh__7-99">
          <mxGeometry width="30" height="30" as="geometry" />
        </mxCell>
        <mxCell id="Q3FPXsVdG5ssyg1eh__7-101" value="first_name: string" style="shape=partialRectangle;connectable=0;fillColor=none;top=0;left=0;bottom=0;right=0;align=left;spacingLeft=6;overflow=hidden;" vertex="1" parent="Q3FPXsVdG5ssyg1eh__7-99">
          <mxGeometry x="30" width="150" height="30" as="geometry" />
        </mxCell>
        <mxCell id="Q3FPXsVdG5ssyg1eh__7-102" value="" style="shape=partialRectangle;collapsible=0;dropTarget=0;pointerEvents=0;fillColor=none;top=0;left=0;bottom=0;right=0;points=[[0,0.5],[1,0.5]];portConstraint=eastwest;" vertex="1" parent="Q3FPXsVdG5ssyg1eh__7-95">
          <mxGeometry y="90" width="180" height="30" as="geometry" />
        </mxCell>
        <mxCell id="Q3FPXsVdG5ssyg1eh__7-103" value="" style="shape=partialRectangle;connectable=0;fillColor=none;top=0;left=0;bottom=0;right=0;editable=1;overflow=hidden;" vertex="1" parent="Q3FPXsVdG5ssyg1eh__7-102">
          <mxGeometry width="30" height="30" as="geometry" />
        </mxCell>
        <mxCell id="Q3FPXsVdG5ssyg1eh__7-104" value="past_name: string" style="shape=partialRectangle;connectable=0;fillColor=none;top=0;left=0;bottom=0;right=0;align=left;spacingLeft=6;overflow=hidden;" vertex="1" parent="Q3FPXsVdG5ssyg1eh__7-102">
          <mxGeometry x="30" width="150" height="30" as="geometry" />
        </mxCell>
        <mxCell id="Q3FPXsVdG5ssyg1eh__7-192" style="shape=partialRectangle;collapsible=0;dropTarget=0;pointerEvents=0;fillColor=none;top=0;left=0;bottom=0;right=0;points=[[0,0.5],[1,0.5]];portConstraint=eastwest;" vertex="1" parent="Q3FPXsVdG5ssyg1eh__7-95">
          <mxGeometry y="120" width="180" height="30" as="geometry" />
        </mxCell>
        <mxCell id="Q3FPXsVdG5ssyg1eh__7-193" value="" style="shape=partialRectangle;connectable=0;fillColor=none;top=0;left=0;bottom=0;right=0;editable=1;overflow=hidden;" vertex="1" parent="Q3FPXsVdG5ssyg1eh__7-192">
          <mxGeometry width="30" height="30" as="geometry" />
        </mxCell>
        <mxCell id="Q3FPXsVdG5ssyg1eh__7-194" value="" style="shape=partialRectangle;connectable=0;fillColor=none;top=0;left=0;bottom=0;right=0;align=left;spacingLeft=6;overflow=hidden;" vertex="1" parent="Q3FPXsVdG5ssyg1eh__7-192">
          <mxGeometry x="30" width="150" height="30" as="geometry" />
        </mxCell>
        <mxCell id="Q3FPXsVdG5ssyg1eh__7-171" style="shape=partialRectangle;collapsible=0;dropTarget=0;pointerEvents=0;fillColor=none;top=0;left=0;bottom=0;right=0;points=[[0,0.5],[1,0.5]];portConstraint=eastwest;" vertex="1" parent="Q3FPXsVdG5ssyg1eh__7-95">
          <mxGeometry y="150" width="180" height="30" as="geometry" />
        </mxCell>
        <mxCell id="Q3FPXsVdG5ssyg1eh__7-172" style="shape=partialRectangle;connectable=0;fillColor=none;top=0;left=0;bottom=0;right=0;editable=1;overflow=hidden;" vertex="1" parent="Q3FPXsVdG5ssyg1eh__7-171">
          <mxGeometry width="30" height="30" as="geometry" />
        </mxCell>
        <mxCell id="Q3FPXsVdG5ssyg1eh__7-173" value="" style="shape=partialRectangle;connectable=0;fillColor=none;top=0;left=0;bottom=0;right=0;align=left;spacingLeft=6;overflow=hidden;" vertex="1" parent="Q3FPXsVdG5ssyg1eh__7-171">
          <mxGeometry x="30" width="150" height="30" as="geometry" />
        </mxCell>
        <mxCell id="Q3FPXsVdG5ssyg1eh__7-105" value="" style="shape=partialRectangle;collapsible=0;dropTarget=0;pointerEvents=0;fillColor=none;top=0;left=0;bottom=0;right=0;points=[[0,0.5],[1,0.5]];portConstraint=eastwest;" vertex="1" parent="Q3FPXsVdG5ssyg1eh__7-95">
          <mxGeometry y="180" width="180" height="30" as="geometry" />
        </mxCell>
        <mxCell id="Q3FPXsVdG5ssyg1eh__7-106" value="" style="shape=partialRectangle;connectable=0;fillColor=none;top=0;left=0;bottom=0;right=0;editable=1;overflow=hidden;" vertex="1" parent="Q3FPXsVdG5ssyg1eh__7-105">
          <mxGeometry width="30" height="30" as="geometry" />
        </mxCell>
        <mxCell id="Q3FPXsVdG5ssyg1eh__7-107" value="postcode: string " style="shape=partialRectangle;connectable=0;fillColor=none;top=0;left=0;bottom=0;right=0;align=left;spacingLeft=6;overflow=hidden;" vertex="1" parent="Q3FPXsVdG5ssyg1eh__7-105">
          <mxGeometry x="30" width="150" height="30" as="geometry" />
        </mxCell>
        <mxCell id="Q3FPXsVdG5ssyg1eh__7-111" style="shape=partialRectangle;collapsible=0;dropTarget=0;pointerEvents=0;fillColor=none;top=0;left=0;bottom=0;right=0;points=[[0,0.5],[1,0.5]];portConstraint=eastwest;" vertex="1" parent="Q3FPXsVdG5ssyg1eh__7-95">
          <mxGeometry y="210" width="180" height="30" as="geometry" />
        </mxCell>
        <mxCell id="Q3FPXsVdG5ssyg1eh__7-112" value="FK" style="shape=partialRectangle;connectable=0;fillColor=none;top=0;left=0;bottom=0;right=0;editable=1;overflow=hidden;" vertex="1" parent="Q3FPXsVdG5ssyg1eh__7-111">
          <mxGeometry width="30" height="30" as="geometry" />
        </mxCell>
        <mxCell id="Q3FPXsVdG5ssyg1eh__7-113" value="user_id: int" style="shape=partialRectangle;connectable=0;fillColor=none;top=0;left=0;bottom=0;right=0;align=left;spacingLeft=6;overflow=hidden;" vertex="1" parent="Q3FPXsVdG5ssyg1eh__7-111">
          <mxGeometry x="30" width="150" height="30" as="geometry" />
        </mxCell>
        <mxCell id="Q3FPXsVdG5ssyg1eh__7-159" style="shape=partialRectangle;collapsible=0;dropTarget=0;pointerEvents=0;fillColor=none;top=0;left=0;bottom=0;right=0;points=[[0,0.5],[1,0.5]];portConstraint=eastwest;" vertex="1" parent="Q3FPXsVdG5ssyg1eh__7-95">
          <mxGeometry y="240" width="180" height="30" as="geometry" />
        </mxCell>
        <mxCell id="Q3FPXsVdG5ssyg1eh__7-160" style="shape=partialRectangle;connectable=0;fillColor=none;top=0;left=0;bottom=0;right=0;editable=1;overflow=hidden;" vertex="1" parent="Q3FPXsVdG5ssyg1eh__7-159">
          <mxGeometry width="30" height="30" as="geometry" />
        </mxCell>
        <mxCell id="Q3FPXsVdG5ssyg1eh__7-161" value="rating: int" style="shape=partialRectangle;connectable=0;fillColor=none;top=0;left=0;bottom=0;right=0;align=left;spacingLeft=6;overflow=hidden;" vertex="1" parent="Q3FPXsVdG5ssyg1eh__7-159">
          <mxGeometry x="30" width="150" height="30" as="geometry" />
        </mxCell>
        <mxCell id="Q3FPXsVdG5ssyg1eh__7-162" style="shape=partialRectangle;collapsible=0;dropTarget=0;pointerEvents=0;fillColor=none;top=0;left=0;bottom=0;right=0;points=[[0,0.5],[1,0.5]];portConstraint=eastwest;" vertex="1" parent="Q3FPXsVdG5ssyg1eh__7-95">
          <mxGeometry y="270" width="180" height="30" as="geometry" />
        </mxCell>
        <mxCell id="Q3FPXsVdG5ssyg1eh__7-163" style="shape=partialRectangle;connectable=0;fillColor=none;top=0;left=0;bottom=0;right=0;editable=1;overflow=hidden;" vertex="1" parent="Q3FPXsVdG5ssyg1eh__7-162">
          <mxGeometry width="30" height="30" as="geometry" />
        </mxCell>
        <mxCell id="Q3FPXsVdG5ssyg1eh__7-164" value="gender: string" style="shape=partialRectangle;connectable=0;fillColor=none;top=0;left=0;bottom=0;right=0;align=left;spacingLeft=6;overflow=hidden;" vertex="1" parent="Q3FPXsVdG5ssyg1eh__7-162">
          <mxGeometry x="30" width="150" height="30" as="geometry" />
        </mxCell>
        <mxCell id="Q3FPXsVdG5ssyg1eh__7-165" style="shape=partialRectangle;collapsible=0;dropTarget=0;pointerEvents=0;fillColor=none;top=0;left=0;bottom=0;right=0;points=[[0,0.5],[1,0.5]];portConstraint=eastwest;" vertex="1" parent="Q3FPXsVdG5ssyg1eh__7-95">
          <mxGeometry y="300" width="180" height="30" as="geometry" />
        </mxCell>
        <mxCell id="Q3FPXsVdG5ssyg1eh__7-166" style="shape=partialRectangle;connectable=0;fillColor=none;top=0;left=0;bottom=0;right=0;editable=1;overflow=hidden;" vertex="1" parent="Q3FPXsVdG5ssyg1eh__7-165">
          <mxGeometry width="30" height="30" as="geometry" />
        </mxCell>
        <mxCell id="Q3FPXsVdG5ssyg1eh__7-167" value="image: int" style="shape=partialRectangle;connectable=0;fillColor=none;top=0;left=0;bottom=0;right=0;align=left;spacingLeft=6;overflow=hidden;" vertex="1" parent="Q3FPXsVdG5ssyg1eh__7-165">
          <mxGeometry x="30" width="150" height="30" as="geometry" />
        </mxCell>
        <mxCell id="Q3FPXsVdG5ssyg1eh__7-168" style="shape=partialRectangle;collapsible=0;dropTarget=0;pointerEvents=0;fillColor=none;top=0;left=0;bottom=0;right=0;points=[[0,0.5],[1,0.5]];portConstraint=eastwest;" vertex="1" parent="Q3FPXsVdG5ssyg1eh__7-95">
          <mxGeometry y="330" width="180" height="30" as="geometry" />
        </mxCell>
        <mxCell id="Q3FPXsVdG5ssyg1eh__7-169" style="shape=partialRectangle;connectable=0;fillColor=none;top=0;left=0;bottom=0;right=0;editable=1;overflow=hidden;" vertex="1" parent="Q3FPXsVdG5ssyg1eh__7-168">
          <mxGeometry width="30" height="30" as="geometry" />
        </mxCell>
        <mxCell id="Q3FPXsVdG5ssyg1eh__7-170" value="description: int" style="shape=partialRectangle;connectable=0;fillColor=none;top=0;left=0;bottom=0;right=0;align=left;spacingLeft=6;overflow=hidden;" vertex="1" parent="Q3FPXsVdG5ssyg1eh__7-168">
          <mxGeometry x="30" width="150" height="30" as="geometry" />
        </mxCell>
        <mxCell id="Q3FPXsVdG5ssyg1eh__7-211" style="shape=partialRectangle;collapsible=0;dropTarget=0;pointerEvents=0;fillColor=none;top=0;left=0;bottom=0;right=0;points=[[0,0.5],[1,0.5]];portConstraint=eastwest;" vertex="1" parent="Q3FPXsVdG5ssyg1eh__7-95">
          <mxGeometry y="360" width="180" height="30" as="geometry" />
        </mxCell>
        <mxCell id="Q3FPXsVdG5ssyg1eh__7-212" style="shape=partialRectangle;connectable=0;fillColor=none;top=0;left=0;bottom=0;right=0;editable=1;overflow=hidden;" vertex="1" parent="Q3FPXsVdG5ssyg1eh__7-211">
          <mxGeometry width="30" height="30" as="geometry" />
        </mxCell>
        <mxCell id="Q3FPXsVdG5ssyg1eh__7-213" value="is_veritied: boolean" style="shape=partialRectangle;connectable=0;fillColor=none;top=0;left=0;bottom=0;right=0;align=left;spacingLeft=6;overflow=hidden;" vertex="1" parent="Q3FPXsVdG5ssyg1eh__7-211">
          <mxGeometry x="30" width="150" height="30" as="geometry" />
        </mxCell>
        <mxCell id="Q3FPXsVdG5ssyg1eh__7-110" value="" style="edgeStyle=entityRelationEdgeStyle;fontSize=12;html=1;endArrow=ERzeroToMany;endFill=1;" edge="1" parent="1" target="Q3FPXsVdG5ssyg1eh__7-139">
          <mxGeometry width="100" height="100" relative="1" as="geometry">
            <mxPoint x="570" y="540" as="sourcePoint" />
            <mxPoint x="620" y="490" as="targetPoint" />
          </mxGeometry>
        </mxCell>
        <mxCell id="Q3FPXsVdG5ssyg1eh__7-117" value="" style="fontSize=12;html=1;endArrow=ERone;endFill=1;exitX=0;exitY=0.5;exitDx=0;exitDy=0;entryX=1;entryY=0.5;entryDx=0;entryDy=0;edgeStyle=orthogonalEdgeStyle;" edge="1" parent="1" source="Q3FPXsVdG5ssyg1eh__7-79" target="Q3FPXsVdG5ssyg1eh__7-111">
          <mxGeometry width="100" height="100" relative="1" as="geometry">
            <mxPoint x="260" y="490" as="sourcePoint" />
            <mxPoint x="360" y="390" as="targetPoint" />
          </mxGeometry>
        </mxCell>
        <mxCell id="Q3FPXsVdG5ssyg1eh__7-118" value="CATEGORY" style="shape=table;startSize=30;container=1;collapsible=1;childLayout=tableLayout;fixedRows=1;rowLines=0;fontStyle=1;align=center;resizeLast=1;" vertex="1" parent="1">
          <mxGeometry x="980" y="500" width="180" height="100" as="geometry" />
        </mxCell>
        <mxCell id="Q3FPXsVdG5ssyg1eh__7-119" value="" style="shape=partialRectangle;collapsible=0;dropTarget=0;pointerEvents=0;fillColor=none;top=0;left=0;bottom=1;right=0;points=[[0,0.5],[1,0.5]];portConstraint=eastwest;" vertex="1" parent="Q3FPXsVdG5ssyg1eh__7-118">
          <mxGeometry y="30" width="180" height="30" as="geometry" />
        </mxCell>
        <mxCell id="Q3FPXsVdG5ssyg1eh__7-120" value="PK" style="shape=partialRectangle;connectable=0;fillColor=none;top=0;left=0;bottom=0;right=0;fontStyle=1;overflow=hidden;" vertex="1" parent="Q3FPXsVdG5ssyg1eh__7-119">
          <mxGeometry width="30" height="30" as="geometry" />
        </mxCell>
        <mxCell id="Q3FPXsVdG5ssyg1eh__7-121" value="id" style="shape=partialRectangle;connectable=0;fillColor=none;top=0;left=0;bottom=0;right=0;align=left;spacingLeft=6;fontStyle=5;overflow=hidden;" vertex="1" parent="Q3FPXsVdG5ssyg1eh__7-119">
          <mxGeometry x="30" width="150" height="30" as="geometry" />
        </mxCell>
        <mxCell id="Q3FPXsVdG5ssyg1eh__7-122" value="" style="shape=partialRectangle;collapsible=0;dropTarget=0;pointerEvents=0;fillColor=none;top=0;left=0;bottom=0;right=0;points=[[0,0.5],[1,0.5]];portConstraint=eastwest;" vertex="1" parent="Q3FPXsVdG5ssyg1eh__7-118">
          <mxGeometry y="60" width="180" height="30" as="geometry" />
        </mxCell>
        <mxCell id="Q3FPXsVdG5ssyg1eh__7-123" value="" style="shape=partialRectangle;connectable=0;fillColor=none;top=0;left=0;bottom=0;right=0;editable=1;overflow=hidden;" vertex="1" parent="Q3FPXsVdG5ssyg1eh__7-122">
          <mxGeometry width="30" height="30" as="geometry" />
        </mxCell>
        <mxCell id="Q3FPXsVdG5ssyg1eh__7-124" value="name: string" style="shape=partialRectangle;connectable=0;fillColor=none;top=0;left=0;bottom=0;right=0;align=left;spacingLeft=6;overflow=hidden;" vertex="1" parent="Q3FPXsVdG5ssyg1eh__7-122">
          <mxGeometry x="30" width="150" height="30" as="geometry" />
        </mxCell>
        <mxCell id="Q3FPXsVdG5ssyg1eh__7-135" value="" style="edgeStyle=entityRelationEdgeStyle;fontSize=12;html=1;endArrow=ERmany;endFill=0;exitX=0.006;exitY=0.267;exitDx=0;exitDy=0;exitPerimeter=0;entryX=1;entryY=0.5;entryDx=0;entryDy=0;startArrow=ERone;startFill=0;" edge="1" parent="1" source="Q3FPXsVdG5ssyg1eh__7-119" target="Q3FPXsVdG5ssyg1eh__7-132">
          <mxGeometry width="100" height="100" relative="1" as="geometry">
            <mxPoint x="740" y="560" as="sourcePoint" />
            <mxPoint x="840" y="460" as="targetPoint" />
          </mxGeometry>
        </mxCell>
        <mxCell id="Q3FPXsVdG5ssyg1eh__7-142" value="SUBCATEGORY" style="shape=table;startSize=30;container=1;collapsible=1;childLayout=tableLayout;fixedRows=1;rowLines=0;fontStyle=1;align=center;resizeLast=1;" vertex="1" parent="1">
          <mxGeometry x="1240" y="500" width="180" height="140" as="geometry" />
        </mxCell>
        <mxCell id="Q3FPXsVdG5ssyg1eh__7-143" value="" style="shape=partialRectangle;collapsible=0;dropTarget=0;pointerEvents=0;fillColor=none;top=0;left=0;bottom=1;right=0;points=[[0,0.5],[1,0.5]];portConstraint=eastwest;" vertex="1" parent="Q3FPXsVdG5ssyg1eh__7-142">
          <mxGeometry y="30" width="180" height="30" as="geometry" />
        </mxCell>
        <mxCell id="Q3FPXsVdG5ssyg1eh__7-144" value="PK" style="shape=partialRectangle;connectable=0;fillColor=none;top=0;left=0;bottom=0;right=0;fontStyle=1;overflow=hidden;" vertex="1" parent="Q3FPXsVdG5ssyg1eh__7-143">
          <mxGeometry width="30" height="30" as="geometry" />
        </mxCell>
        <mxCell id="Q3FPXsVdG5ssyg1eh__7-145" value="id" style="shape=partialRectangle;connectable=0;fillColor=none;top=0;left=0;bottom=0;right=0;align=left;spacingLeft=6;fontStyle=5;overflow=hidden;" vertex="1" parent="Q3FPXsVdG5ssyg1eh__7-143">
          <mxGeometry x="30" width="150" height="30" as="geometry" />
        </mxCell>
        <mxCell id="Q3FPXsVdG5ssyg1eh__7-146" value="" style="shape=partialRectangle;collapsible=0;dropTarget=0;pointerEvents=0;fillColor=none;top=0;left=0;bottom=0;right=0;points=[[0,0.5],[1,0.5]];portConstraint=eastwest;" vertex="1" parent="Q3FPXsVdG5ssyg1eh__7-142">
          <mxGeometry y="60" width="180" height="40" as="geometry" />
        </mxCell>
        <mxCell id="Q3FPXsVdG5ssyg1eh__7-147" value="" style="shape=partialRectangle;connectable=0;fillColor=none;top=0;left=0;bottom=0;right=0;editable=1;overflow=hidden;" vertex="1" parent="Q3FPXsVdG5ssyg1eh__7-146">
          <mxGeometry width="30" height="40" as="geometry" />
        </mxCell>
        <mxCell id="Q3FPXsVdG5ssyg1eh__7-148" value="name: string" style="shape=partialRectangle;connectable=0;fillColor=none;top=0;left=0;bottom=0;right=0;align=left;spacingLeft=6;overflow=hidden;" vertex="1" parent="Q3FPXsVdG5ssyg1eh__7-146">
          <mxGeometry x="30" width="150" height="40" as="geometry" />
        </mxCell>
        <mxCell id="Q3FPXsVdG5ssyg1eh__7-149" value="" style="shape=partialRectangle;collapsible=0;dropTarget=0;pointerEvents=0;fillColor=none;top=0;left=0;bottom=0;right=0;points=[[0,0.5],[1,0.5]];portConstraint=eastwest;" vertex="1" parent="Q3FPXsVdG5ssyg1eh__7-142">
          <mxGeometry y="100" width="180" height="30" as="geometry" />
        </mxCell>
        <mxCell id="Q3FPXsVdG5ssyg1eh__7-150" value="FK" style="shape=partialRectangle;connectable=0;fillColor=none;top=0;left=0;bottom=0;right=0;editable=1;overflow=hidden;" vertex="1" parent="Q3FPXsVdG5ssyg1eh__7-149">
          <mxGeometry width="30" height="30" as="geometry" />
        </mxCell>
        <mxCell id="Q3FPXsVdG5ssyg1eh__7-151" value="category_id: int" style="shape=partialRectangle;connectable=0;fillColor=none;top=0;left=0;bottom=0;right=0;align=left;spacingLeft=6;overflow=hidden;" vertex="1" parent="Q3FPXsVdG5ssyg1eh__7-149">
          <mxGeometry x="30" width="150" height="30" as="geometry" />
        </mxCell>
        <mxCell id="Q3FPXsVdG5ssyg1eh__7-179" value="Booking" style="shape=table;startSize=30;container=1;collapsible=1;childLayout=tableLayout;fixedRows=1;rowLines=0;fontStyle=1;align=center;resizeLast=1;" vertex="1" parent="1">
          <mxGeometry x="380" y="740" width="180" height="290" as="geometry" />
        </mxCell>
        <mxCell id="Q3FPXsVdG5ssyg1eh__7-180" value="" style="shape=partialRectangle;collapsible=0;dropTarget=0;pointerEvents=0;fillColor=none;top=0;left=0;bottom=1;right=0;points=[[0,0.5],[1,0.5]];portConstraint=eastwest;" vertex="1" parent="Q3FPXsVdG5ssyg1eh__7-179">
          <mxGeometry y="30" width="180" height="30" as="geometry" />
        </mxCell>
        <mxCell id="Q3FPXsVdG5ssyg1eh__7-181" value="PK" style="shape=partialRectangle;connectable=0;fillColor=none;top=0;left=0;bottom=0;right=0;fontStyle=1;overflow=hidden;" vertex="1" parent="Q3FPXsVdG5ssyg1eh__7-180">
          <mxGeometry width="30" height="30" as="geometry" />
        </mxCell>
        <mxCell id="Q3FPXsVdG5ssyg1eh__7-182" value="id" style="shape=partialRectangle;connectable=0;fillColor=none;top=0;left=0;bottom=0;right=0;align=left;spacingLeft=6;fontStyle=5;overflow=hidden;" vertex="1" parent="Q3FPXsVdG5ssyg1eh__7-180">
          <mxGeometry x="30" width="150" height="30" as="geometry" />
        </mxCell>
        <mxCell id="Q3FPXsVdG5ssyg1eh__7-183" value="" style="shape=partialRectangle;collapsible=0;dropTarget=0;pointerEvents=0;fillColor=none;top=0;left=0;bottom=0;right=0;points=[[0,0.5],[1,0.5]];portConstraint=eastwest;" vertex="1" parent="Q3FPXsVdG5ssyg1eh__7-179">
          <mxGeometry y="60" width="180" height="40" as="geometry" />
        </mxCell>
        <mxCell id="Q3FPXsVdG5ssyg1eh__7-184" value="FK" style="shape=partialRectangle;connectable=0;fillColor=none;top=0;left=0;bottom=0;right=0;editable=1;overflow=hidden;" vertex="1" parent="Q3FPXsVdG5ssyg1eh__7-183">
          <mxGeometry width="30" height="40" as="geometry" />
        </mxCell>
        <mxCell id="Q3FPXsVdG5ssyg1eh__7-185" value="listing_id: int" style="shape=partialRectangle;connectable=0;fillColor=none;top=0;left=0;bottom=0;right=0;align=left;spacingLeft=6;overflow=hidden;" vertex="1" parent="Q3FPXsVdG5ssyg1eh__7-183">
          <mxGeometry x="30" width="150" height="40" as="geometry" />
        </mxCell>
        <mxCell id="Q3FPXsVdG5ssyg1eh__7-186" value="" style="shape=partialRectangle;collapsible=0;dropTarget=0;pointerEvents=0;fillColor=none;top=0;left=0;bottom=0;right=0;points=[[0,0.5],[1,0.5]];portConstraint=eastwest;" vertex="1" parent="Q3FPXsVdG5ssyg1eh__7-179">
          <mxGeometry y="100" width="180" height="30" as="geometry" />
        </mxCell>
        <mxCell id="Q3FPXsVdG5ssyg1eh__7-187" value="FK" style="shape=partialRectangle;connectable=0;fillColor=none;top=0;left=0;bottom=0;right=0;editable=1;overflow=hidden;" vertex="1" parent="Q3FPXsVdG5ssyg1eh__7-186">
          <mxGeometry width="30" height="30" as="geometry" />
        </mxCell>
        <mxCell id="Q3FPXsVdG5ssyg1eh__7-188" value="user_id: int" style="shape=partialRectangle;connectable=0;fillColor=none;top=0;left=0;bottom=0;right=0;align=left;spacingLeft=6;overflow=hidden;" vertex="1" parent="Q3FPXsVdG5ssyg1eh__7-186">
          <mxGeometry x="30" width="150" height="30" as="geometry" />
        </mxCell>
        <mxCell id="Q3FPXsVdG5ssyg1eh__7-189" value="" style="shape=partialRectangle;collapsible=0;dropTarget=0;pointerEvents=0;fillColor=none;top=0;left=0;bottom=0;right=0;points=[[0,0.5],[1,0.5]];portConstraint=eastwest;" vertex="1" parent="Q3FPXsVdG5ssyg1eh__7-179">
          <mxGeometry y="130" width="180" height="30" as="geometry" />
        </mxCell>
        <mxCell id="Q3FPXsVdG5ssyg1eh__7-190" value="" style="shape=partialRectangle;connectable=0;fillColor=none;top=0;left=0;bottom=0;right=0;editable=1;overflow=hidden;" vertex="1" parent="Q3FPXsVdG5ssyg1eh__7-189">
          <mxGeometry width="30" height="30" as="geometry" />
        </mxCell>
        <mxCell id="Q3FPXsVdG5ssyg1eh__7-191" value="stripe_payment_id: string" style="shape=partialRectangle;connectable=0;fillColor=none;top=0;left=0;bottom=0;right=0;align=left;spacingLeft=6;overflow=hidden;" vertex="1" parent="Q3FPXsVdG5ssyg1eh__7-189">
          <mxGeometry x="30" width="150" height="30" as="geometry" />
        </mxCell>
        <mxCell id="Q3FPXsVdG5ssyg1eh__7-219" style="shape=partialRectangle;collapsible=0;dropTarget=0;pointerEvents=0;fillColor=none;top=0;left=0;bottom=0;right=0;points=[[0,0.5],[1,0.5]];portConstraint=eastwest;" vertex="1" parent="Q3FPXsVdG5ssyg1eh__7-179">
          <mxGeometry y="160" width="180" height="30" as="geometry" />
        </mxCell>
        <mxCell id="Q3FPXsVdG5ssyg1eh__7-220" style="shape=partialRectangle;connectable=0;fillColor=none;top=0;left=0;bottom=0;right=0;editable=1;overflow=hidden;" vertex="1" parent="Q3FPXsVdG5ssyg1eh__7-219">
          <mxGeometry width="30" height="30" as="geometry" />
        </mxCell>
        <mxCell id="Q3FPXsVdG5ssyg1eh__7-221" value="start_date: int" style="shape=partialRectangle;connectable=0;fillColor=none;top=0;left=0;bottom=0;right=0;align=left;spacingLeft=6;overflow=hidden;" vertex="1" parent="Q3FPXsVdG5ssyg1eh__7-219">
          <mxGeometry x="30" width="150" height="30" as="geometry" />
        </mxCell>
        <mxCell id="Q3FPXsVdG5ssyg1eh__7-222" style="shape=partialRectangle;collapsible=0;dropTarget=0;pointerEvents=0;fillColor=none;top=0;left=0;bottom=0;right=0;points=[[0,0.5],[1,0.5]];portConstraint=eastwest;" vertex="1" parent="Q3FPXsVdG5ssyg1eh__7-179">
          <mxGeometry y="190" width="180" height="30" as="geometry" />
        </mxCell>
        <mxCell id="Q3FPXsVdG5ssyg1eh__7-223" style="shape=partialRectangle;connectable=0;fillColor=none;top=0;left=0;bottom=0;right=0;editable=1;overflow=hidden;" vertex="1" parent="Q3FPXsVdG5ssyg1eh__7-222">
          <mxGeometry width="30" height="30" as="geometry" />
        </mxCell>
        <mxCell id="Q3FPXsVdG5ssyg1eh__7-224" value="end_date: int" style="shape=partialRectangle;connectable=0;fillColor=none;top=0;left=0;bottom=0;right=0;align=left;spacingLeft=6;overflow=hidden;" vertex="1" parent="Q3FPXsVdG5ssyg1eh__7-222">
          <mxGeometry x="30" width="150" height="30" as="geometry" />
        </mxCell>
        <mxCell id="Q3FPXsVdG5ssyg1eh__7-225" style="shape=partialRectangle;collapsible=0;dropTarget=0;pointerEvents=0;fillColor=none;top=0;left=0;bottom=0;right=0;points=[[0,0.5],[1,0.5]];portConstraint=eastwest;" vertex="1" parent="Q3FPXsVdG5ssyg1eh__7-179">
          <mxGeometry y="220" width="180" height="30" as="geometry" />
        </mxCell>
        <mxCell id="Q3FPXsVdG5ssyg1eh__7-226" style="shape=partialRectangle;connectable=0;fillColor=none;top=0;left=0;bottom=0;right=0;editable=1;overflow=hidden;" vertex="1" parent="Q3FPXsVdG5ssyg1eh__7-225">
          <mxGeometry width="30" height="30" as="geometry" />
        </mxCell>
        <mxCell id="Q3FPXsVdG5ssyg1eh__7-227" value="no_of_days: int" style="shape=partialRectangle;connectable=0;fillColor=none;top=0;left=0;bottom=0;right=0;align=left;spacingLeft=6;overflow=hidden;" vertex="1" parent="Q3FPXsVdG5ssyg1eh__7-225">
          <mxGeometry x="30" width="150" height="30" as="geometry" />
        </mxCell>
        <mxCell id="Q3FPXsVdG5ssyg1eh__7-228" style="shape=partialRectangle;collapsible=0;dropTarget=0;pointerEvents=0;fillColor=none;top=0;left=0;bottom=0;right=0;points=[[0,0.5],[1,0.5]];portConstraint=eastwest;" vertex="1" parent="Q3FPXsVdG5ssyg1eh__7-179">
          <mxGeometry y="250" width="180" height="30" as="geometry" />
        </mxCell>
        <mxCell id="Q3FPXsVdG5ssyg1eh__7-229" style="shape=partialRectangle;connectable=0;fillColor=none;top=0;left=0;bottom=0;right=0;editable=1;overflow=hidden;" vertex="1" parent="Q3FPXsVdG5ssyg1eh__7-228">
          <mxGeometry width="30" height="30" as="geometry" />
        </mxCell>
        <mxCell id="Q3FPXsVdG5ssyg1eh__7-230" value="" style="shape=partialRectangle;connectable=0;fillColor=none;top=0;left=0;bottom=0;right=0;align=left;spacingLeft=6;overflow=hidden;" vertex="1" parent="Q3FPXsVdG5ssyg1eh__7-228">
          <mxGeometry x="30" width="150" height="30" as="geometry" />
        </mxCell>
        <mxCell id="Q3FPXsVdG5ssyg1eh__7-197" value="Favourites" style="shape=table;startSize=30;container=1;collapsible=1;childLayout=tableLayout;fixedRows=1;rowLines=0;fontStyle=1;align=center;resizeLast=1;" vertex="1" parent="1">
          <mxGeometry x="440" y="170" width="180" height="130" as="geometry" />
        </mxCell>
        <mxCell id="Q3FPXsVdG5ssyg1eh__7-198" value="" style="shape=partialRectangle;collapsible=0;dropTarget=0;pointerEvents=0;fillColor=none;top=0;left=0;bottom=1;right=0;points=[[0,0.5],[1,0.5]];portConstraint=eastwest;" vertex="1" parent="Q3FPXsVdG5ssyg1eh__7-197">
          <mxGeometry y="30" width="180" height="30" as="geometry" />
        </mxCell>
        <mxCell id="Q3FPXsVdG5ssyg1eh__7-199" value="PK" style="shape=partialRectangle;connectable=0;fillColor=none;top=0;left=0;bottom=0;right=0;fontStyle=1;overflow=hidden;" vertex="1" parent="Q3FPXsVdG5ssyg1eh__7-198">
          <mxGeometry width="30" height="30" as="geometry" />
        </mxCell>
        <mxCell id="Q3FPXsVdG5ssyg1eh__7-200" value="id" style="shape=partialRectangle;connectable=0;fillColor=none;top=0;left=0;bottom=0;right=0;align=left;spacingLeft=6;fontStyle=5;overflow=hidden;" vertex="1" parent="Q3FPXsVdG5ssyg1eh__7-198">
          <mxGeometry x="30" width="150" height="30" as="geometry" />
        </mxCell>
        <mxCell id="Q3FPXsVdG5ssyg1eh__7-201" value="" style="shape=partialRectangle;collapsible=0;dropTarget=0;pointerEvents=0;fillColor=none;top=0;left=0;bottom=0;right=0;points=[[0,0.5],[1,0.5]];portConstraint=eastwest;" vertex="1" parent="Q3FPXsVdG5ssyg1eh__7-197">
          <mxGeometry y="60" width="180" height="30" as="geometry" />
        </mxCell>
        <mxCell id="Q3FPXsVdG5ssyg1eh__7-202" value="FK" style="shape=partialRectangle;connectable=0;fillColor=none;top=0;left=0;bottom=0;right=0;editable=1;overflow=hidden;" vertex="1" parent="Q3FPXsVdG5ssyg1eh__7-201">
          <mxGeometry width="30" height="30" as="geometry" />
        </mxCell>
        <mxCell id="Q3FPXsVdG5ssyg1eh__7-203" value="user_id: int" style="shape=partialRectangle;connectable=0;fillColor=none;top=0;left=0;bottom=0;right=0;align=left;spacingLeft=6;overflow=hidden;" vertex="1" parent="Q3FPXsVdG5ssyg1eh__7-201">
          <mxGeometry x="30" width="150" height="30" as="geometry" />
        </mxCell>
        <mxCell id="Q3FPXsVdG5ssyg1eh__7-204" value="" style="shape=partialRectangle;collapsible=0;dropTarget=0;pointerEvents=0;fillColor=none;top=0;left=0;bottom=0;right=0;points=[[0,0.5],[1,0.5]];portConstraint=eastwest;" vertex="1" parent="Q3FPXsVdG5ssyg1eh__7-197">
          <mxGeometry y="90" width="180" height="30" as="geometry" />
        </mxCell>
        <mxCell id="Q3FPXsVdG5ssyg1eh__7-205" value="FK" style="shape=partialRectangle;connectable=0;fillColor=none;top=0;left=0;bottom=0;right=0;editable=1;overflow=hidden;" vertex="1" parent="Q3FPXsVdG5ssyg1eh__7-204">
          <mxGeometry width="30" height="30" as="geometry" />
        </mxCell>
        <mxCell id="Q3FPXsVdG5ssyg1eh__7-206" value="listing_id: int" style="shape=partialRectangle;connectable=0;fillColor=none;top=0;left=0;bottom=0;right=0;align=left;spacingLeft=6;overflow=hidden;" vertex="1" parent="Q3FPXsVdG5ssyg1eh__7-204">
          <mxGeometry x="30" width="150" height="30" as="geometry" />
        </mxCell>
        <mxCell id="Q3FPXsVdG5ssyg1eh__7-215" style="edgeStyle=orthogonalEdgeStyle;rounded=0;orthogonalLoop=1;jettySize=auto;html=1;exitX=1;exitY=0.5;exitDx=0;exitDy=0;entryX=0;entryY=0.5;entryDx=0;entryDy=0;startArrow=none;startFill=0;endArrow=ERzeroToMany;endFill=1;" edge="1" parent="1" source="Q3FPXsVdG5ssyg1eh__7-183" target="Q3FPXsVdG5ssyg1eh__7-33">
          <mxGeometry relative="1" as="geometry" />
        </mxCell>
        <mxCell id="Q3FPXsVdG5ssyg1eh__7-216" style="edgeStyle=orthogonalEdgeStyle;rounded=0;orthogonalLoop=1;jettySize=auto;html=1;exitX=1;exitY=0.5;exitDx=0;exitDy=0;entryX=0;entryY=0.5;entryDx=0;entryDy=0;startArrow=none;startFill=0;endArrow=ERzeroToMany;endFill=1;" edge="1" parent="1" source="Q3FPXsVdG5ssyg1eh__7-204" target="Q3FPXsVdG5ssyg1eh__7-33">
          <mxGeometry relative="1" as="geometry" />
        </mxCell>
        <mxCell id="Q3FPXsVdG5ssyg1eh__7-217" style="edgeStyle=orthogonalEdgeStyle;rounded=0;orthogonalLoop=1;jettySize=auto;html=1;exitX=1;exitY=0.5;exitDx=0;exitDy=0;entryX=0;entryY=0.5;entryDx=0;entryDy=0;startArrow=none;startFill=0;endArrow=ERone;endFill=0;" edge="1" parent="1" source="Q3FPXsVdG5ssyg1eh__7-79" target="Q3FPXsVdG5ssyg1eh__7-201">
          <mxGeometry relative="1" as="geometry" />
        </mxCell>
        <mxCell id="Q3FPXsVdG5ssyg1eh__7-238" style="edgeStyle=orthogonalEdgeStyle;rounded=0;orthogonalLoop=1;jettySize=auto;html=1;startArrow=ERzeroToMany;startFill=1;endArrow=none;endFill=0;" edge="1" parent="1">
          <mxGeometry relative="1" as="geometry">
            <mxPoint x="370" y="530" as="targetPoint" />
            <mxPoint x="380" y="855" as="sourcePoint" />
            <Array as="points">
              <mxPoint x="340" y="855" />
              <mxPoint x="340" y="530" />
            </Array>
          </mxGeometry>
        </mxCell>
        <mxCell id="Q3FPXsVdG5ssyg1eh__7-240" style="edgeStyle=orthogonalEdgeStyle;rounded=0;orthogonalLoop=1;jettySize=auto;html=1;exitX=1;exitY=0.5;exitDx=0;exitDy=0;entryX=0;entryY=0.5;entryDx=0;entryDy=0;startArrow=ERone;startFill=0;endArrow=ERmany;endFill=0;" edge="1" parent="1" source="Q3FPXsVdG5ssyg1eh__7-119" target="Q3FPXsVdG5ssyg1eh__7-149">
          <mxGeometry relative="1" as="geometry" />
        </mxCell>
      </root>
    </mxGraphModel>
  </diagram>
</mxfile>
